<svg width="64" height="64" viewBox="0 0 64 64" fill="none" xmlns="http://www.w3.org/2000/svg">
  <style>
    path { fill: #14372F; }
    @media (prefers-color-scheme: dark) {
      path { fill: #FFFFFF; }
    }
  </style>
  <g transform="translate(0, 16)">
    <path d="M15.2551 32C12.4482 32 9.88532 31.2815 7.56654 29.8444C5.2681 28.4073 3.42732 26.4845 2.04419 24.0759C0.681395 21.6471 0 18.9652 0 16.0304C0 13.8039 0.396633 11.7293 1.1899 9.80645C1.98317 7.86338 3.07137 6.16319 4.4545 4.70588C5.85797 3.22834 7.48518 2.07464 9.33613 1.24478C11.1871 0.414927 13.1601 0 15.2551 0C17.5536 0 19.6588 0.465528 21.5707 1.39658C23.5031 2.3074 25.1506 3.58254 26.5134 5.22201C27.8965 6.86148 28.9237 8.76407 29.5949 10.9298C30.2865 13.0955 30.5408 15.413 30.3577 17.8824H5.46133C5.70542 19.6028 6.27494 21.1411 7.16991 22.4972C8.06487 23.833 9.20392 24.8956 10.5871 25.685C11.9905 26.4744 13.5465 26.8792 15.2551 26.8994C17.0857 26.8994 18.7435 26.4339 20.2283 25.5028C21.7131 24.5515 22.9132 23.2562 23.8285 21.6167L29.0458 22.8311C27.8253 25.5231 25.9846 27.7293 23.5234 29.4497C21.0622 31.1499 18.3061 32 15.2551 32ZM5.30878 13.8748H25.2015C25.0387 12.1746 24.4896 10.6262 23.5539 9.2296C22.6183 7.81278 21.4284 6.67932 19.9842 5.82922C18.5401 4.97913 16.9637 4.55408 15.2551 4.55408C13.5465 4.55408 11.9804 4.96901 10.5565 5.79886C9.13273 6.62871 7.953 7.75205 7.01736 9.16888C6.10205 10.5655 5.53252 12.1341 5.30878 13.8748Z" />
    <path d="M48.7449 32C45.9379 32 43.3751 31.2815 41.0563 29.8444C38.7579 28.4073 36.9171 26.4845 35.5339 24.0759C34.1712 21.6471 33.4898 18.9652 33.4898 16.0304C33.4898 13.8039 33.8864 11.7293 34.6797 9.80645C35.4729 7.86338 36.5611 6.16319 37.9443 4.70588C39.3477 3.22834 40.9749 2.07464 42.8259 1.24478C44.6768 0.414927 46.6498 0 48.7449 0C51.5518 0 54.1045 0.718532 56.403 2.1556C58.7217 3.59266 60.5625 5.52562 61.9253 7.95446C63.3084 10.3833 64 13.0753 64 16.0304C64 18.2366 63.6034 20.3011 62.8101 22.2239C62.0168 24.1467 60.9185 25.8469 59.515 27.3245C58.1319 28.7818 56.5148 29.9254 54.6639 30.7552C52.8333 31.5851 50.8603 32 48.7449 32ZM48.7449 26.8994C50.6569 26.8994 52.3756 26.4035 53.9011 25.4118C55.447 24.3997 56.6572 23.074 57.5318 21.4345C58.4268 19.7748 58.8743 17.9734 58.8743 16.0304C58.8743 14.0468 58.4166 12.2252 57.5013 10.5655C56.6064 8.90576 55.3961 7.58001 53.8706 6.58823C52.3451 5.59646 50.6365 5.10057 48.7449 5.10057C46.8329 5.10057 45.1142 5.60658 43.5887 6.61859C42.0631 7.61037 40.8529 8.93612 39.9579 10.5958C39.063 12.2555 38.6155 14.067 38.6155 16.0304C38.6155 18.0544 39.0731 19.8963 39.9884 21.556C40.9038 23.1954 42.1343 24.5009 43.6802 25.4725C45.226 26.4238 46.9143 26.8994 48.7449 26.8994Z" />
  </g>
</svg>
